<svg width="94" height="94" viewBox="0 0 94 94" fill="none" xmlns="http://www.w3.org/2000/svg">
<circle cx="47" cy="47" r="47" fill="#941F56"/>
<path d="M1.11352 42.0699C1.11352 40.2293 2.44745 38.586 4.31494 38.2574C7.11618 37.7315 9.85073 36.5483 12.5186 34.6421C16.1869 32.0785 18.0544 28.9233 18.0544 25.1766C18.0544 21.7585 14.7863 21.89 12.1851 22.1529C2.98102 23.1389 -3.15504 13.4105 1.71379 5.65404C6.38253 -1.83946 18.1211 -1.5108 23.4568 4.93098C31.1268 14.1993 28.459 31.0268 19.9219 38.9147C15.8534 42.6614 11.118 44.9621 5.64887 45.9481C3.3145 46.3425 1.11352 44.4362 1.11352 42.0699ZM33.1277 42.0699C33.1277 40.2293 34.4616 38.586 36.3291 38.2574C39.1304 37.7315 41.8649 36.5483 44.5328 34.6421C48.2011 32.0785 50.0686 28.9233 50.0686 25.1766C50.0686 21.7585 46.8005 21.89 44.1993 22.1529C34.9952 23.1389 28.8592 13.4105 33.728 5.58831C38.3967 -1.9052 50.1353 -1.57653 55.471 4.86525C63.141 14.1335 60.4732 30.9611 51.9361 38.849C47.8676 42.5957 43.1322 44.8964 37.6631 45.8823C35.3287 46.3425 33.1277 44.4362 33.1277 42.0699Z" transform="translate(77 24) scale(-1 1)" fill="white"/>
</svg>
