<svg width="115" height="112" viewBox="0 0 115 112" fill="none" xmlns="http://www.w3.org/2000/svg">
<path d="M0 0L35.7677 15.6044L61.8958 61.8885L14.2056 41.788L0 0Z" transform="matrix(0.967993 0.250975 -0.249953 0.968258 27.3691 0)" fill="#F27E7E"/>
<path d="M5.3271 0L20.5475 10.5792L0 16.6623L5.3271 0Z" transform="matrix(0.967993 0.250975 -0.249953 0.968258 92.5732 30.5664)" fill="#941F56"/>
<path d="M14.2056 0L22.5767 65.5913L0 67.7071L14.2056 0Z" transform="matrix(0.967993 0.250975 -0.249953 0.968258 16.9238 40.4609)" fill="#2C3E99"/>
<path d="M0 0L47.9439 19.8361L6.59548 51.8383L0 0Z" transform="matrix(0.967993 0.250975 -0.249953 0.968258 30.6748 44.0273)" fill="#32C7BE"/>
<path d="M32.4699 0L18.2643 48.6645L0 15.8689L32.4699 0Z" transform="matrix(0.967993 0.250975 -0.249953 0.968258 66.2988 23.7539)" fill="#D12A78"/>
<path d="M11.72 0.9V15.74H8.74V14.5C7.96667 15.4333 6.84667 15.9 5.38 15.9C4.36667 15.9 3.44667 15.6733 2.62 15.22C1.80667 14.7667 1.16667 14.12 0.7 13.28C0.233333 12.44 0 11.4667 0 10.36C0 9.2533 0.233333 8.28 0.7 7.44C1.16667 6.6 1.80667 5.95333 2.62 5.5C3.44667 5.04667 4.36667 4.82 5.38 4.82C6.75333 4.82 7.82667 5.25333 8.6 6.12V0.9H11.72ZM5.92 13.34C6.70667 13.34 7.36 13.0733 7.88 12.54C8.4 11.9933 8.66 11.2667 8.66 10.36C8.66 9.4533 8.4 8.7333 7.88 8.2C7.36 7.6533 6.70667 7.38 5.92 7.38C5.12 7.38 4.46 7.6533 3.94 8.2C3.42 8.7333 3.16 9.4533 3.16 10.36C3.16 11.2667 3.42 11.9933 3.94 12.54C4.46 13.0733 5.12 13.34 5.92 13.34ZM14.6077 4.98H17.7277V15.74H14.6077V4.98ZM16.1677 3.48C15.5943 3.48 15.1277 3.31333 14.7677 2.98C14.4077 2.64667 14.2277 2.23333 14.2277 1.74C14.2277 1.24667 14.4077 0.83333 14.7677 0.5C15.1277 0.16667 15.5943 0 16.1677 0C16.741 0 17.2077 0.16 17.5677 0.48C17.9277 0.8 18.1077 1.2 18.1077 1.68C18.1077 2.2 17.9277 2.63333 17.5677 2.98C17.2077 3.31333 16.741 3.48 16.1677 3.48ZM31.3033 4.98L26.7633 15.74H23.5433L19.0233 4.98H22.2433L25.2233 12.3L28.3033 4.98H31.3033ZM37.7034 13.4C38.2634 13.4 38.7568 13.32 39.1834 13.16C39.6234 12.9867 40.0301 12.72 40.4034 12.36L42.0634 14.16C41.0501 15.32 39.5701 15.9 37.6234 15.9C36.4101 15.9 35.3368 15.6667 34.4034 15.2C33.4701 14.72 32.7501 14.06 32.2434 13.22C31.7368 12.38 31.4834 11.4267 31.4834 10.36C31.4834 9.3067 31.7301 8.36 32.2234 7.52C32.7301 6.66667 33.4168 6.00667 34.2834 5.54C35.1634 5.06 36.1501 4.82 37.2434 4.82C38.2701 4.82 39.2034 5.04 40.0434 5.48C40.8834 5.90667 41.5501 6.53333 42.0434 7.36C42.5501 8.1733 42.8034 9.14 42.8034 10.26L34.8434 11.8C35.0701 12.3333 35.4234 12.7333 35.9034 13C36.3968 13.2667 36.9968 13.4 37.7034 13.4ZM37.2434 7.18C36.4568 7.18 35.8168 7.4333 35.3234 7.94C34.8301 8.4467 34.5701 9.1467 34.5434 10.04L39.7834 9.02C39.6368 8.46 39.3368 8.0133 38.8834 7.68C38.4301 7.3467 37.8834 7.18 37.2434 7.18ZM47.8806 6.4C48.254 5.88 48.754 5.48667 49.3806 5.22C50.0206 4.95333 50.754 4.82 51.5806 4.82V7.7C51.234 7.6733 51.0006 7.66 50.8806 7.66C49.9873 7.66 49.2873 7.9133 48.7806 8.42C48.274 8.9133 48.0206 9.66 48.0206 10.66V15.74H44.9006V4.98H47.8806V6.4ZM57.0948 15.9C56.2015 15.9 55.3282 15.7933 54.4748 15.58C53.6215 15.3533 52.9415 15.0733 52.4348 14.74L53.4748 12.5C53.9548 12.8067 54.5348 13.06 55.2148 13.26C55.8948 13.4467 56.5615 13.54 57.2148 13.54C58.5348 13.54 59.1948 13.2133 59.1948 12.56C59.1948 12.2533 59.0148 12.0333 58.6548 11.9C58.2948 11.7667 57.7415 11.6533 56.9948 11.56C56.1148 11.4267 55.3882 11.2733 54.8148 11.1C54.2415 10.9267 53.7415 10.62 53.3148 10.18C52.9015 9.74 52.6948 9.1133 52.6948 8.3C52.6948 7.62 52.8882 7.02 53.2748 6.5C53.6748 5.96667 54.2482 5.55333 54.9948 5.26C55.7548 4.96667 56.6482 4.82 57.6748 4.82C58.4348 4.82 59.1882 4.90667 59.9348 5.08C60.6948 5.24 61.3215 5.46667 61.8148 5.76L60.7748 7.98C59.8282 7.4467 58.7948 7.18 57.6748 7.18C57.0082 7.18 56.5082 7.2733 56.1748 7.46C55.8415 7.6467 55.6748 7.8867 55.6748 8.18C55.6748 8.5133 55.8548 8.7467 56.2148 8.88C56.5748 9.0133 57.1482 9.14 57.9348 9.26C58.8148 9.4067 59.5348 9.5667 60.0948 9.74C60.6548 9.9 61.1415 10.2 61.5548 10.64C61.9682 11.08 62.1748 11.6933 62.1748 12.48C62.1748 13.1467 61.9748 13.74 61.5748 14.26C61.1748 14.78 60.5882 15.1867 59.8148 15.48C59.0548 15.76 58.1482 15.9 57.0948 15.9ZM69.2198 15.9C68.0865 15.9 67.0665 15.6667 66.1598 15.2C65.2665 14.72 64.5665 14.06 64.0598 13.22C63.5532 12.38 63.2998 11.4267 63.2998 10.36C63.2998 9.2933 63.5532 8.34 64.0598 7.5C64.5665 6.66 65.2665 6.00667 66.1598 5.54C67.0665 5.06 68.0865 4.82 69.2198 4.82C70.3532 4.82 71.3665 5.06 72.2598 5.54C73.1532 6.00667 73.8532 6.66 74.3598 7.5C74.8665 8.34 75.1198 9.2933 75.1198 10.36C75.1198 11.4267 74.8665 12.38 74.3598 13.22C73.8532 14.06 73.1532 14.72 72.2598 15.2C71.3665 15.6667 70.3532 15.9 69.2198 15.9ZM69.2198 13.34C70.0198 13.34 70.6732 13.0733 71.1798 12.54C71.6998 11.9933 71.9598 11.2667 71.9598 10.36C71.9598 9.4533 71.6998 8.7333 71.1798 8.2C70.6732 7.6533 70.0198 7.38 69.2198 7.38C68.4198 7.38 67.7598 7.6533 67.2398 8.2C66.7198 8.7333 66.4598 9.4533 66.4598 10.36C66.4598 11.2667 66.7198 11.9933 67.2398 12.54C67.7598 13.0733 68.4198 13.34 69.2198 13.34Z" transform="translate(39.6816 94.2568) scale(1.00106 0.998924)" fill="#4F4F4F"/>
</svg>
