<svg width="66" height="66" viewBox="0 0 66 66" fill="none" xmlns="http://www.w3.org/2000/svg">
<path d="M33 0C26.4732 0 20.093 1.93542 14.6662 5.5615C9.23937 9.18759 5.00968 14.3415 2.51199 20.3714C0.0142984 26.4014 -0.639211 33.0366 0.6341 39.438C1.90741 45.8393 5.05036 51.7194 9.66549 56.3345C14.2806 60.9496 20.1607 64.0926 26.562 65.3659C32.9634 66.6392 39.5986 65.9857 45.6286 63.488C51.6585 60.9903 56.8124 56.7606 60.4385 51.3338C64.0646 45.907 66 39.5268 66 33C66 24.2479 62.5232 15.8542 56.3345 9.66547C50.1458 3.47677 41.7521 0 33 0V0ZM33 63.8C26.9083 63.8 20.9535 61.9936 15.8884 58.6093C10.8234 55.2249 6.8757 50.4146 4.54452 44.7866C2.21335 39.1587 1.6034 32.9658 2.79183 26.9912C3.98025 21.0166 6.91367 15.5286 11.2211 11.2211C15.5286 6.91365 21.0166 3.98024 26.9912 2.79181C32.9658 1.60339 39.1587 2.21333 44.7867 4.54451C50.4146 6.87569 55.2249 10.8234 58.6093 15.8884C61.9936 20.9535 63.8 26.9083 63.8 33C63.8 41.1687 60.555 49.0028 54.7789 54.7789C49.0028 60.555 41.1687 63.8 33 63.8Z" fill="#32C7BE"/>
<path d="M27.5 0.00895442C25.8154 -0.0602811 24.1385 0.272773 22.6082 0.98054C21.0779 1.68831 19.7382 2.75043 18.7 4.07895C17.6618 2.75043 16.3221 1.68831 14.7918 0.98054C13.2615 0.272773 11.5846 -0.0602811 9.9 0.00895442C4.4 0.00895442 0 3.36395 0 7.48895V28.3009C0.00064794 28.7284 0.125836 29.1465 0.36026 29.504C0.594684 29.8615 0.928187 30.1429 1.32 30.3139C1.59732 30.4362 1.89692 30.4999 2.2 30.5009C2.7558 30.499 3.29027 30.2868 3.696 29.9069C5.42433 28.4378 7.63221 27.6549 9.9 27.7069C12.1676 27.6559 14.3751 28.4387 16.104 29.9069C16.4163 30.2005 16.8075 30.3964 17.2296 30.4707C17.6517 30.5449 18.0863 30.4943 18.48 30.3249C18.5558 30.2853 18.6293 30.2412 18.7 30.1929C18.7707 30.2412 18.8442 30.2853 18.92 30.3249C19.1973 30.4472 19.4969 30.5109 19.8 30.5119C20.3558 30.51 20.8903 30.2978 21.296 29.9179C23.0243 28.4488 25.2322 27.6659 27.5 27.7179C29.7676 27.6669 31.9751 28.4497 33.704 29.9179C34.0181 30.2093 34.4104 30.4025 34.8328 30.474C35.2552 30.5455 35.6893 30.4921 36.0818 30.3204C36.4743 30.1487 36.8081 29.8661 37.0423 29.5074C37.2764 29.1487 37.4008 28.7294 37.4 28.3009V7.48895C37.4 3.36395 33 0.00895442 27.5 0.00895442ZM9.9 25.5289C7.07709 25.4581 4.33002 26.4471 2.2 28.3009V7.48895C2.2 4.57395 5.654 2.20895 9.9 2.20895C14.146 2.20895 17.6 4.57395 17.6 7.48895V28.2899C15.4662 26.4438 12.7208 25.4594 9.9 25.5289ZM35.2 28.2899C33.0662 26.4438 30.3208 25.4594 27.5 25.5289C24.6771 25.4581 21.93 26.4471 19.8 28.3009V7.48895C19.8 4.57395 23.254 2.20895 27.5 2.20895C31.746 2.20895 35.2 4.57395 35.2 7.48895V28.2899Z" transform="translate(14.2988 16.4941)" fill="#32C7BE"/>
</svg>
