<svg width="64" height="64" viewBox="0 0 64 64" fill="none" xmlns="http://www.w3.org/2000/svg">
<path d="M32.0116 0C14.3537 0 0 14.3538 0 32.0116C0 49.6695 14.3537 64 32.0116 64C49.6695 64 64 49.6695 64 32.0116C64 14.3538 49.6695 0 32.0116 0ZM32 3C48.8538 3 61 15.1462 61 32C61 48.8539 48.8538 61 32 61C15.1462 61 3 48.8655 3 32.0116C3 15.1579 15.1462 3 32 3ZM31.9186 12.6466C31.7338 12.6697 31.5644 12.7614 31.4438 12.9034C31.3233 13.0455 31.2605 13.2276 31.2677 13.4137V17.8772C31.2663 17.9758 31.2845 18.0737 31.3213 18.1652C31.358 18.2566 31.4126 18.3399 31.4818 18.4101C31.5511 18.4803 31.6335 18.536 31.7245 18.5741C31.8154 18.6121 31.913 18.6317 32.0116 18.6317C32.1102 18.6317 32.2078 18.6121 32.2988 18.5741C32.3897 18.536 32.4722 18.4803 32.5414 18.4101C32.6106 18.3399 32.6652 18.2566 32.702 18.1652C32.7387 18.0737 32.7569 17.9758 32.7555 17.8772V13.4137C32.7598 13.3058 32.7404 13.1982 32.6989 13.0984C32.6573 12.9987 32.5945 12.9092 32.5149 12.8362C32.4352 12.7632 32.3406 12.7084 32.2376 12.6757C32.1347 12.6429 32.0258 12.633 31.9186 12.6466ZM25.1769 23.8286C24.9796 23.847 24.7977 23.9432 24.6713 24.0958C24.5449 24.2483 24.4842 24.4449 24.5027 24.6422C24.5212 24.8395 24.6173 25.0214 24.7699 25.1478C24.9225 25.2742 25.1191 25.3349 25.3164 25.3164H31V47.6339H25.3164C25.27 47.6295 25.2233 47.6295 25.1769 47.6339C24.9796 47.6524 24.7977 47.7485 24.6713 47.9011C24.5449 48.0536 24.4842 48.2502 24.5027 48.4475C24.5212 48.6448 24.6173 48.8267 24.7699 48.9531C24.9225 49.0795 25.1191 49.1402 25.3164 49.1217H38.7069C38.8054 49.1231 38.9033 49.1049 38.9948 49.0681C39.0863 49.0313 39.1695 48.9768 39.2397 48.9076C39.3099 48.8383 39.3657 48.7559 39.4037 48.6649C39.4418 48.574 39.4614 48.4764 39.4614 48.3778C39.4614 48.2792 39.4418 48.1816 39.4037 48.0906C39.3657 47.9997 39.3099 47.9172 39.2397 47.848C39.1695 47.7788 39.0863 47.7242 38.9948 47.6874C38.9033 47.6507 38.8054 47.6325 38.7069 47.6339H33V24.6422C33 24.4449 32.6771 24.186 32.5376 24.0465C32.3981 23.907 32.2089 23.8286 32.0116 23.8286H25.3164C25.27 23.8242 25.2233 23.8242 25.1769 23.8286Z" fill="#32C7BE"/>
</svg>
