<svg width="39" height="39" viewBox="0 0 39 39" fill="none" xmlns="http://www.w3.org/2000/svg">
<path d="M19.5071 0C8.74681 0 0 8.74683 0 19.5071C0 30.2674 8.74681 39 19.5071 39C30.2674 39 39 30.2674 39 19.5071C39 8.74683 30.2674 0 19.5071 0ZM19.5071 0.920814C29.7774 0.920814 38.0934 9.23682 38.0934 19.5071C38.0934 29.7774 29.7774 38.0934 19.5071 38.0934C9.2368 38.0934 0.906647 29.7774 0.906647 19.5071C0.906647 9.23682 9.2368 0.920814 19.5071 0.920814ZM19.4504 7.7065C19.3378 7.72062 19.2345 7.77647 19.1611 7.86303C19.0876 7.94959 19.0493 8.06056 19.0538 8.17399V10.8939C19.0529 10.954 19.064 11.0136 19.0864 11.0694C19.1088 11.1251 19.1421 11.1759 19.1842 11.2187C19.2264 11.2614 19.2767 11.2954 19.3321 11.3186C19.3875 11.3418 19.447 11.3537 19.5071 11.3537C19.5672 11.3537 19.6266 11.3418 19.6821 11.3186C19.7375 11.2954 19.7877 11.2614 19.8299 11.2187C19.8721 11.1759 19.9054 11.1251 19.9278 11.0694C19.9502 11.0136 19.9613 10.954 19.9604 10.8939V8.17399C19.963 8.1082 19.9512 8.04264 19.9259 7.98187C19.9005 7.92109 19.8623 7.86656 19.8137 7.82207C19.7652 7.77758 19.7076 7.7442 19.6448 7.72424C19.5821 7.70428 19.5157 7.69823 19.4504 7.7065ZM15.3422 14.5205C15.2219 14.5318 15.1111 14.5904 15.0341 14.6833C14.957 14.7763 14.9201 14.8961 14.9313 15.0163C14.9426 15.1366 15.0012 15.2474 15.0942 15.3244C15.1872 15.4015 15.3069 15.4384 15.4272 15.4272H19.0538V29.0269H15.4272C15.3989 29.0242 15.3704 29.0242 15.3422 29.0269C15.2219 29.0382 15.1111 29.0967 15.0341 29.1897C14.957 29.2827 14.9201 29.4025 14.9313 29.5227C14.9426 29.6429 15.0012 29.7538 15.0942 29.8308C15.1872 29.9078 15.3069 29.9448 15.4272 29.9335H23.587C23.6471 29.9344 23.7067 29.9233 23.7625 29.9009C23.8182 29.8785 23.8689 29.8452 23.9117 29.803C23.9545 29.7609 23.9885 29.7106 24.0116 29.6552C24.0348 29.5998 24.0468 29.5403 24.0468 29.4802C24.0468 29.4201 24.0348 29.3606 24.0116 29.3052C23.9885 29.2498 23.9545 29.1995 23.9117 29.1574C23.8689 29.1152 23.8182 29.0819 23.7625 29.0595C23.7067 29.0371 23.6471 29.026 23.587 29.0269H19.9604V14.9738C19.9604 14.8536 19.9126 14.7383 19.8276 14.6533C19.7426 14.5683 19.6273 14.5205 19.5071 14.5205H15.4272C15.3989 14.5179 15.3704 14.5179 15.3422 14.5205Z" fill="black"/>
</svg>
