<svg width="158" height="158" viewBox="0 0 158 158" fill="none" xmlns="http://www.w3.org/2000/svg">
<path d="M158 79C158 122.631 122.631 158 79 158C35.3695 158 0 122.631 0 79C0 35.3695 35.3695 0 79 0C122.631 0 158 35.3695 158 79Z" fill="#941F56"/>
<path d="M144.059 72.0294C144.059 111.81 111.81 144.059 72.0294 144.059C32.2487 144.059 0 111.81 0 72.0294C0 32.2487 32.2487 0 72.0294 0C111.81 0 144.059 32.2487 144.059 72.0294Z" transform="translate(6.9707 6.9707)" fill="#32C7BE"/>
<path d="M133.99 66.2206C133.99 102.793 103.995 132.441 66.9951 132.441C29.9947 132.441 0 102.793 0 66.2206C0 29.648 29.9947 0 66.9951 0C103.995 0 133.99 29.648 133.99 66.2206Z" transform="translate(12.3926 12.3926)" fill="#2C3E99"/>
<path d="M125.471 62.7353C125.471 97.383 97.383 125.471 62.7353 125.471C28.0875 125.471 0 97.383 0 62.7353C0 28.0875 28.0875 0 62.7353 0C97.383 0 125.471 28.0875 125.471 62.7353Z" transform="translate(16.2656 16.2646)" fill="#EDEDED"/>
<path d="M0 0L25.6057 11.1497L44.3105 44.221L10.1696 29.8586L0 0Z" transform="translate(64.5176 37.9512) rotate(14.505)" fill="#F27E7E"/>
<path d="M3.81361 0L14.7097 7.55915L0 11.9057L3.81361 0Z" transform="translate(111.203 59.7881) rotate(14.505)" fill="#941F56"/>
<path d="M10.1696 0L16.1625 46.8667L0 48.3785L10.1696 0Z" transform="translate(57.0391 66.8574) rotate(14.505)" fill="#2C3E99"/>
<path d="M0 0L34.3225 14.1734L4.72163 37.0398L0 0Z" transform="translate(66.8848 69.4053) rotate(14.505)" fill="#32C7BE"/>
<path d="M23.2449 0L13.0752 34.7721L0 11.3387L23.2449 0Z" transform="translate(92.3906 54.9209) rotate(14.505)" fill="#D12A78"/>
</svg>
