<svg width="103" height="103" viewBox="0 0 103 103" fill="none" xmlns="http://www.w3.org/2000/svg">
<path d="M51.5 0C41.3143 0 31.3573 3.02042 22.8882 8.67931C14.419 14.3382 7.81814 22.3814 3.92023 31.7918C0.0223141 41.2022 -0.997557 51.5571 0.989581 61.5471C2.97672 71.5372 7.88162 80.7136 15.084 87.916C22.2864 95.1184 31.4628 100.023 41.4529 102.01C51.4429 103.998 61.7978 102.978 71.2082 99.0798C80.6186 95.1819 88.6618 88.581 94.3207 80.1119C99.9796 71.6427 103 61.6857 103 51.5C103 37.8413 97.5741 24.7421 87.916 15.084C78.2579 5.42588 65.1587 0 51.5 0ZM51.5 99.5667C41.9933 99.5667 32.7001 96.7476 24.7956 91.466C16.8911 86.1843 10.7303 78.6773 7.09221 69.8943C3.45416 61.1113 2.50228 51.4467 4.35694 42.1227C6.21161 32.7986 10.7895 24.234 17.5118 17.5117C24.234 10.7895 32.7987 6.21158 42.1227 4.35692C51.4467 2.50226 61.1113 3.45414 69.8943 7.09219C78.6774 10.7302 86.1843 16.8911 91.466 24.7956C96.7476 32.7001 99.5667 41.9933 99.5667 51.5C99.5667 64.2481 94.5025 76.474 85.4883 85.4883C76.474 94.5025 64.2481 99.5667 51.5 99.5667Z" fill="#941F56"/>
<path d="M42.9167 0.0139743C40.2876 -0.0940751 37.6707 0.425691 35.2824 1.53024C32.8942 2.63478 30.8035 4.29233 29.1833 6.36564C27.5632 4.29233 25.4724 2.63478 23.0842 1.53024C20.696 0.425691 18.079 -0.0940751 15.45 0.0139743C6.86667 0.0139743 0 5.24981 0 11.6873V44.1666C0.00101118 44.8338 0.19638 45.4862 0.562224 46.0441C0.928067 46.602 1.44853 47.0413 2.06 47.3081C2.49279 47.499 2.96034 47.5983 3.43333 47.6C4.30071 47.597 5.13481 47.2658 5.768 46.673C8.46525 44.3802 11.9109 43.1583 15.45 43.2396C18.9889 43.1599 22.4339 44.3816 25.132 46.673C25.6193 47.1311 26.2299 47.4368 26.8886 47.5527C27.5473 47.6686 28.2256 47.5896 28.84 47.3253C28.9583 47.2634 29.073 47.1946 29.1833 47.1193C29.2937 47.1946 29.4083 47.2634 29.5267 47.3253C29.9594 47.5161 30.427 47.6155 30.9 47.6171C31.7674 47.6141 32.6015 47.2829 33.2347 46.6901C35.9319 44.3974 39.3775 43.1755 42.9167 43.2568C46.4555 43.1771 49.9006 44.3988 52.5987 46.6901C53.0889 47.1448 53.7011 47.4464 54.3603 47.558C55.0195 47.6695 55.697 47.5862 56.3095 47.3182C56.922 47.0503 57.4429 46.6093 57.8084 46.0494C58.1738 45.4896 58.3679 44.8352 58.3667 44.1666V11.6873C58.3667 5.24981 51.5 0.0139743 42.9167 0.0139743ZM15.45 39.8406C11.0446 39.7301 6.75745 41.2735 3.43333 44.1666V11.6873C3.43333 7.13814 8.82367 3.44731 15.45 3.44731C22.0763 3.44731 27.4667 7.13814 27.4667 11.6873V44.1495C24.1366 41.2683 19.8521 39.732 15.45 39.8406ZM54.9333 44.1495C51.6033 41.2683 47.3188 39.732 42.9167 39.8406C38.5112 39.7301 34.2241 41.2735 30.9 44.1666V11.6873C30.9 7.13814 36.2903 3.44731 42.9167 3.44731C49.543 3.44731 54.9333 7.13814 54.9333 11.6873V44.1495Z" transform="translate(22.3164 25.7422)" fill="#941F56"/>
</svg>
