<svg width="91" height="92" viewBox="0 0 91 92" fill="none" xmlns="http://www.w3.org/2000/svg">
<ellipse cx="45.5" cy="46" rx="45.5" ry="46" fill="#941F56"/>
<path d="M15.8549 43.1613L37.3927 21.6939L39.5611 23.8552C39.8997 24.1925 40.343 24.3612 40.7865 24.3612C41.2298 24.3612 41.6734 24.1925 42.0114 23.8552L44.5056 21.3694L35.2679 12.1617L32.7736 14.6477C32.4486 14.9716 32.266 15.4109 32.266 15.8689C32.266 16.3269 32.4485 16.7663 32.7736 17.09L34.942 19.2513L29.7709 24.4056L19.2785 13.9472C19.8062 12.7185 20.0851 11.3851 20.0851 10.0083C20.0851 7.33485 19.0406 4.82155 17.1439 2.93115C15.2476 1.04099 12.7262 0 10.0441 0C9.14317 0 8.25796 0.120553 7.39955 0.353945L10.5272 3.47151L12.6793 5.61614C13.0312 5.96674 13.2147 6.45137 13.1833 6.94614L12.9109 11.2509C12.8559 12.1192 12.1618 12.8112 11.2906 12.866L6.97202 13.1372C6.47483 13.1684 5.98942 12.9854 5.63779 12.6348L3.4835 10.4877L2.07765 9.08615L0.356433 7.37078C-0.588503 10.8113 0.369486 14.5194 2.94391 17.0854C4.84037 18.9758 7.36189 20.017 10.044 20.017C11.4278 20.017 12.7679 19.7378 14.0024 19.2098L24.4932 29.6664L13.4043 40.7191L9.60917 40.2607C9.08045 40.1967 8.55207 40.3786 8.17548 40.754L1.41284 47.4946C0.736139 48.1688 0.736139 49.2624 1.41284 49.9371L6.60675 55.114C6.9317 55.4379 7.37252 55.62 7.83193 55.62C8.29158 55.62 8.73216 55.4382 9.05711 55.114L15.8196 48.3734C16.1962 47.9982 16.3786 47.4713 16.3146 46.9444L15.8549 43.1613Z" transform="translate(17.1445 17.0859)" fill="white"/>
<path d="M13.0425 0H0V8.06893H13.0425V0Z" transform="translate(64.1006 36.0137) scale(1.00162 0.998357) rotate(-135)" fill="white"/>
<path d="M9.76102 6.51067C9.76091 4.77157 9.08143 3.13645 7.8477 1.90709C6.61386 0.677262 4.9735 0 3.22884 0C2.07793 0 0.973353 0.296489 0 0.850089L8.90816 9.72922C9.46357 8.75904 9.76102 7.65794 9.76102 6.51067Z" transform="translate(63.1934 17.9805)" fill="white"/>
<path d="M24.388 10.1548C22.4914 8.26439 19.9699 7.22317 17.2879 7.22317C15.9053 7.22317 14.5663 7.50192 13.3328 8.0287L5.27789 0L0 5.2607L8.05482 13.2894C7.5261 14.5191 7.24666 15.8536 7.24666 17.2316C7.24666 19.905 8.29105 22.4183 10.1877 24.3087C12.0841 26.1988 14.6055 27.2398 17.2876 27.2399H17.288C18.1887 27.2399 19.0736 27.1193 19.9321 26.8859L16.8045 23.7684L14.653 21.6238C14.301 21.2732 14.1174 20.7887 14.149 20.2938L14.4212 15.989C14.4763 15.1207 15.1704 14.4286 16.0415 14.374L20.3601 14.1029C20.8573 14.0717 21.3428 14.2546 21.6944 14.6052L23.8486 16.7524L25.2545 18.1538L26.9755 19.8691C27.9203 16.4292 26.9623 12.7208 24.388 10.1548Z" transform="translate(46.5234 46.3604)" fill="white"/>
</svg>
