<svg width="93" height="93" viewBox="0 0 93 93" fill="none" xmlns="http://www.w3.org/2000/svg">
<path d="M93 46.5C93 72.1812 72.1812 93 46.5 93C20.8188 93 0 72.1812 0 46.5C0 20.8188 20.8188 0 46.5 0C72.1812 0 93 20.8188 93 46.5Z" fill="#941F56"/>
<path d="M3.05614 5.81048C4.74401 5.81048 6.11229 4.50976 6.11229 2.90524C6.11229 1.30072 4.74401 0 3.05614 0C1.36828 0 0 1.30072 0 2.90524C0 4.50976 1.36828 5.81048 3.05614 5.81048Z" transform="translate(44.0088 9.68945)" fill="white"/>
<path d="M0.563431 7.4594C1.05902 7.69496 1.71981 7.53792 2.05021 6.98828L3.78478 3.61192L3.04139 8.16608C2.95879 8.71572 3.37178 9.18684 3.94997 9.18684H8.65809C9.23628 9.18684 9.64928 8.71572 9.56668 8.16608L8.82329 3.61192L10.5579 6.98828C10.7231 7.38088 11.1361 7.53792 11.549 7.53792C11.7142 7.53792 11.8794 7.53792 12.0446 7.4594C12.5402 7.22384 12.788 6.59568 12.5402 6.04604L9.56668 0.54964C9.40148 0.23556 8.98849 0 8.57549 0H3.94997C3.53698 0 3.12399 0.23556 2.95879 0.54964L0.150439 6.12456C-0.179956 6.59568 0.0678399 7.22384 0.563431 7.4594Z" transform="translate(40.7188 16.5205)" fill="white"/>
<path d="M2.98165 5.9633C4.62837 5.9633 5.9633 4.62837 5.9633 2.98165C5.9633 1.33493 4.62837 0 2.98165 0C1.33493 0 0 1.33493 0 2.98165C0 4.62837 1.33493 5.9633 2.98165 5.9633Z" transform="translate(17.1289 22.6367) scale(1.02498 0.974365) rotate(-45)" fill="white"/>
<path d="M0.0825983 4.46033L2.14756 10.3493C2.31276 10.899 2.97355 11.2131 3.55174 10.9775C4.12993 10.8205 4.46032 10.1923 4.21253 9.64265L2.97355 6.03073L5.7819 9.72117C6.11229 10.1923 6.77308 10.1923 7.18607 9.79969L10.49 6.65889C10.903 6.26629 10.8204 5.63813 10.4074 5.32405L6.44269 2.81141L10.2422 3.98921C10.6552 4.14625 11.0682 3.98921 11.316 3.75365C11.3986 3.67513 11.4812 3.51809 11.5638 3.36105C11.729 2.81141 11.4812 2.26177 10.903 2.02621L4.70812 0.0632135C4.29513 -0.0938265 3.88213 0.0632129 3.63434 0.298773L0.330395 3.43957C6.89256e-07 3.67513 -0.0825988 4.14625 0.0825983 4.46033Z" transform="translate(22.3682 23.5234)" fill="white"/>
<path d="M3.05615 5.81048C4.74401 5.81048 6.11229 4.50976 6.11229 2.90524C6.11229 1.30072 4.74401 0 3.05615 0C1.36828 0 0 1.30072 0 2.90524C0 4.50976 1.36828 5.81048 3.05615 5.81048Z" transform="translate(7.74805 44.0039)" fill="white"/>
<path d="M7.84686 11.4778C8.09466 11.0067 7.92946 10.3785 7.35127 10.0645L3.79953 8.41553L8.59025 9.12221C9.16844 9.20073 9.66403 8.80813 9.66403 8.25849V3.78285C9.66403 3.23321 9.16844 2.84061 8.59025 2.91913L3.79953 3.62581L7.35127 1.97689C7.76426 1.81985 7.92946 1.42725 7.92946 1.03465C7.92946 0.877609 7.92946 0.720571 7.84686 0.56353C7.59907 0.0924104 6.93828 -0.143148 6.36009 0.0924116L0.57819 2.91913C0.247795 3.07617 0 3.46877 0 3.86137V8.25849C0 8.65109 0.247795 9.04369 0.57819 9.20073L6.44269 11.9489C6.93828 12.1845 7.59907 11.9489 7.84686 11.4778Z" transform="translate(14.9346 40.9268)" fill="white"/>
<path d="M2.98165 5.9633C4.62837 5.9633 5.9633 4.62837 5.9633 2.98165C5.9633 1.33493 4.62837 0 2.98165 0C1.33493 0 0 1.33493 0 2.98165C0 4.62837 1.33493 5.9633 2.98165 5.9633Z" transform="translate(17.0459 71.2598) scale(1.02498 0.974364) rotate(-45)" fill="white"/>
<path d="M10.2261 7.03604L6.42659 8.21384L10.3087 5.54416C10.8043 5.23008 10.8043 4.60192 10.3913 4.20932L7.08737 1.06852C6.67438 0.675917 6.01359 0.754435 5.6832 1.14704L2.95745 4.916L4.19642 1.30408C4.36162 0.911479 4.19642 0.518877 3.94863 0.283317C3.86603 0.204797 3.70083 0.12628 3.53564 0.0477602C2.95745 -0.10928 2.37926 0.126277 2.13146 0.675917L0.066497 6.56492C-0.0987001 6.95752 0.0664964 7.35012 0.314292 7.58568L3.61823 10.7265C3.94863 11.0406 4.36162 11.1191 4.69202 10.962L10.8869 8.99904C11.4651 8.842 11.7955 8.21384 11.5477 7.6642C11.3825 7.19308 10.8043 6.879 10.2261 7.03604Z" transform="translate(22.3027 59.3447)" fill="white"/>
<path d="M3.05615 5.81049C4.74401 5.81049 6.11229 4.50977 6.11229 2.90525C6.11229 1.30072 4.74401 0 3.05615 0C1.36828 0 0 1.30072 0 2.90525C0 4.50977 1.36828 5.81049 3.05615 5.81049Z" transform="translate(43.8428 78.4727)" fill="white"/>
<path d="M12.074 1.72744C11.5784 1.49188 10.9176 1.64892 10.5872 2.19856L8.85266 5.57492L9.59605 1.02076C9.67865 0.471122 9.26565 0 8.68746 0H3.97934C3.40115 0 2.98816 0.471122 3.07076 1.02076L3.81415 5.57492L2.07958 2.19856C1.91438 1.80596 1.50138 1.64892 1.08839 1.64892C0.923195 1.64892 0.757999 1.64892 0.592802 1.72744C0.0972104 1.963 -0.150584 2.59116 0.0972117 3.1408L2.98816 8.71572C3.15336 9.02979 3.56635 9.26536 3.97934 9.26536H8.60486C9.01786 9.26536 9.43085 9.02979 9.59605 8.71572L12.487 3.1408C12.8174 2.59116 12.5696 1.963 12.074 1.72744Z" transform="translate(40.6064 68.2656)" fill="white"/>
<path d="M2.98165 5.96329C4.62837 5.96329 5.9633 4.62837 5.9633 2.98165C5.9633 1.33493 4.62837 0 2.98165 0C1.33493 0 0 1.33493 0 2.98165C0 4.62837 1.33493 5.96329 2.98165 5.96329Z" transform="translate(68.1914 71.335) scale(1.02498 0.974364) rotate(-45)" fill="white"/>
<path d="M11.614 6.59629L9.54908 0.707287C9.38388 0.157648 8.72309 -0.156429 8.1449 0.0791311C7.56671 0.236171 7.23632 0.864329 7.48411 1.41397L8.72309 5.02589L5.91474 1.33545C5.58435 0.86433 4.92356 0.864331 4.51056 1.25693L1.20662 4.39773C0.793629 4.79033 0.876226 5.41849 1.28922 5.73257L5.17136 8.40225L1.37182 7.22445C0.95883 7.06741 0.545834 7.22445 0.298039 7.46001C0.21544 7.53853 0.132839 7.69557 0.0502403 7.85261C-0.114957 8.40225 0.132841 8.95189 0.711031 9.18745L6.90592 11.1504C7.31892 11.3075 7.73191 11.1504 7.97971 10.9149L11.2836 7.77409C11.6966 7.38149 11.7792 6.91037 11.614 6.59629Z" transform="translate(59.9004 59.3916)" fill="white"/>
<path d="M3.05615 5.81048C4.74402 5.81048 6.1123 4.50976 6.1123 2.90524C6.1123 1.30072 4.74402 0 3.05615 0C1.36829 0 0 1.30072 0 2.90524C0 4.50976 1.36829 5.81048 3.05615 5.81048Z" transform="translate(80.1045 44.1611)" fill="white"/>
<path d="M9.16843 2.8542L3.30394 0.106002C2.80835 -0.129558 2.14756 0.0274834 1.81717 0.577123C1.56937 1.04824 1.73457 1.6764 2.31276 1.99048L5.86449 3.6394L1.07378 2.93272C0.495594 2.8542 0 3.2468 0 3.79644V8.27208C0 8.82172 0.495594 9.21432 1.07378 9.1358L5.86449 8.42912L2.31276 10.078C1.89977 10.2351 1.73457 10.6277 1.73457 11.0203C1.73457 11.1773 1.73457 11.3344 1.81717 11.4914C2.06496 11.9625 2.72575 12.1981 3.30394 11.9625L9.16843 9.21432C9.49883 9.05728 9.74663 8.66468 9.74663 8.27208V3.87496C9.74663 3.32532 9.58143 3.01124 9.16843 2.8542Z" transform="translate(69.2842 41.0703)" fill="white"/>
<path d="M2.98164 5.96329C4.62836 5.96329 5.96329 4.62837 5.96329 2.98165C5.96329 1.33493 4.62836 0 2.98164 0C1.33493 0 0 1.33493 0 2.98165C0 4.62837 1.33493 5.96329 2.98164 5.96329Z" transform="translate(68.2734 22.7148) scale(1.02498 0.974365) rotate(-45)" fill="white"/>
<path d="M1.32222 3.926L5.12175 2.7482L1.23962 5.41788C0.74403 5.73196 0.744031 6.36012 1.15702 6.75272L4.46097 9.89352C4.87396 10.2861 5.53474 10.2076 5.86514 9.815L8.67349 6.12456L7.43451 9.73648C7.26931 10.1291 7.43451 10.5217 7.6823 10.7572C7.7649 10.8358 7.9301 10.9143 8.0953 10.9928C8.67349 11.1498 9.25168 10.9143 9.49948 10.3646L11.5644 4.47564C11.7296 4.08304 11.5644 3.69044 11.3166 3.45488L8.0127 0.314081C7.68231 6.5331e-07 7.26932 -0.0785202 6.93892 0.0785198L0.744031 2.04152C0.165842 2.19856 -0.164555 2.82672 0.0832405 3.37636C0.165839 3.76896 0.744029 4.08304 1.32222 3.926Z" transform="translate(60.1162 23.667)" fill="white"/>
<path d="M19.4933 0C8.67285 0 0 8.32312 0 18.5307C0 28.7383 8.75545 37.0614 19.4933 37.0614C30.2311 37.0614 38.9865 28.7383 38.9865 18.5307C38.9039 8.32312 30.2311 0 19.4933 0ZM33.3698 19.5515L33.122 22.2997C33.122 22.3782 33.122 22.4567 33.122 22.4567L34.0306 24.7338C31.5527 29.9946 25.9359 33.6851 19.4933 33.6851C16.4371 33.6851 13.5462 32.8214 11.0682 31.408L12.142 26.5398C12.2246 26.3827 12.142 26.1472 12.0594 25.9901L10.4074 22.5352C10.2422 22.2212 9.99443 22.0641 9.66403 21.9856L6.02969 21.5145C5.28631 21.436 4.95591 20.5722 5.4515 20.0226L5.6993 19.7085C5.9471 19.473 6.27749 19.3159 6.52529 19.3944L8.25986 19.63C8.34245 19.63 8.50765 19.63 8.59025 19.63L10.903 19.1589C10.9856 19.1589 11.0682 19.1589 11.1508 19.0804L12.6376 18.3737C12.8854 18.2166 13.1332 17.9811 13.1332 17.667L13.7114 13.5054C13.794 13.1128 13.5462 12.7202 13.1332 12.5632L12.3898 12.2491C11.9768 12.0921 11.729 11.6995 11.8116 11.2284C11.8942 10.8358 12.2246 10.5217 12.6376 10.5217L13.7114 10.4432C14.207 10.3646 14.6199 9.97204 14.5373 9.50092L14.4547 8.2446V5.73196C14.4547 5.33936 14.207 5.02528 13.794 4.94676L12.8028 4.63268C14.7851 3.76896 17.0153 3.29784 19.3281 3.29784C20.4844 3.29784 21.7234 3.45488 22.7972 3.69044L22.8798 6.20308V6.2816L22.7146 8.95128C22.7146 9.0298 22.7146 9.10832 22.7972 9.18684L23.1276 9.65796C23.2928 9.89352 23.5406 9.89352 23.7884 9.73648L24.697 8.95128C24.9448 8.71572 25.2752 8.87276 25.3578 9.10832V9.26536C25.4404 9.4224 25.6056 9.57944 25.7708 9.57944H26.7619C26.8445 9.57944 26.8445 9.57944 26.9271 9.57944L27.7531 9.26536C28.0835 9.10832 28.4139 9.4224 28.3313 9.73648L27.8357 11.1498C27.8357 11.3854 27.6705 11.4639 27.5053 11.4639H26.3489C26.2663 11.4639 26.2663 11.4639 26.1837 11.4639L24.7796 11.0713C24.697 11.0713 24.6144 11.0713 24.4492 11.0713L23.7884 11.3854C23.7058 11.4639 23.5406 11.4639 23.458 11.3854L22.632 10.9928C22.4668 10.9143 22.3016 10.9143 22.219 10.9928L21.1452 11.6995C20.98 11.778 20.98 11.935 20.98 12.0921L21.1452 13.2699C21.1452 13.4269 21.0626 13.584 20.8974 13.6625L20.0714 14.0551C19.8237 14.2121 19.7411 14.5262 19.9889 14.6832L20.567 15.2329C20.6496 15.3114 20.8148 15.3899 20.98 15.3114L22.0538 15.0758C22.1364 15.0758 22.219 15.0758 22.3016 15.0758L22.7972 15.3114C22.9624 15.3899 23.2928 15.6255 23.6232 15.861C23.7884 16.0181 24.1188 15.9396 24.2014 15.7825C24.284 15.704 24.3666 15.6255 24.5318 15.6255L25.3578 15.547C25.4404 15.547 25.523 15.4684 25.6056 15.4684L25.6882 15.3899C25.9359 15.2329 26.2663 15.3114 26.3489 15.547L26.7619 16.6462C26.7619 16.6462 26.7619 16.7248 26.8445 16.7248L27.3401 17.2744C27.5053 17.4314 27.4227 17.667 27.2575 17.824L26.1011 18.8448C25.9359 19.0018 25.6882 19.0018 25.523 18.8448L24.3666 17.9811L24.284 17.9026L22.7146 17.2744C22.7146 17.2744 22.632 17.2744 22.5494 17.2744L20.4844 17.1174C20.4018 17.1174 20.4018 17.1174 20.3192 17.1174L17.9239 17.7455C17.7587 17.7455 17.6761 17.9026 17.6761 17.9811L16.8501 20.3367C16.8501 20.4152 16.8501 20.5722 16.8501 20.6508L18.0065 23.0849C18.0891 23.2419 18.1717 23.3204 18.3369 23.3204L20.6496 23.556C20.7322 23.556 20.7322 23.556 20.8148 23.6345L21.7234 24.1056C21.806 24.1842 21.8886 24.2627 21.9712 24.4197L22.1364 26.6183C22.1364 26.6968 22.1364 26.6968 22.219 26.7753L23.2928 28.8168C23.2928 28.8954 23.3754 28.8954 23.3754 28.9739L24.697 29.9161C24.8622 30.0732 25.1926 29.9946 25.2752 29.8376L25.7708 29.2094C25.7708 29.2094 25.7708 29.1309 25.8533 29.1309L26.7619 26.9324V26.8538L27.0923 23.713C27.0923 23.6345 27.0923 23.6345 27.0923 23.556L27.7531 22.2997C27.8357 22.1426 28.0009 22.0641 28.1661 22.0641L30.3963 22.3782C30.5615 22.3782 30.6441 22.3782 30.7267 22.2212L31.1397 21.8286C31.3049 21.6715 31.3049 21.436 31.1397 21.2789L30.0659 19.9441C29.9007 19.7085 29.9833 19.3944 30.3137 19.3159L30.7267 19.2374C30.8093 19.2374 31.4701 19.1589 31.6353 19.1589H31.7178L32.7916 19.3159C33.2046 19.1589 33.3698 19.3944 33.3698 19.5515Z" transform="translate(27.5713 28.4551)" fill="white"/>
</svg>
