<svg width="93" height="94" viewBox="0 0 93 94" fill="none" xmlns="http://www.w3.org/2000/svg">
<ellipse cx="46.5" cy="47" rx="46.5" ry="47" fill="#941F56"/>
<path d="M0 11.0097L11.0562 0L13.4783 2.42271L2.42929 13.4286L0 11.0097Z" transform="translate(12 66.6855)" fill="white"/>
<path d="M57.3518 28.5583C57.3518 44.3374 44.5163 57.136 28.6808 57.136C12.8453 57.136 0 44.3365 0 28.5583C0 12.7879 12.8453 0 28.6808 0C44.5163 0 57.3518 12.7879 57.3518 28.5583ZM54.1339 28.5583C54.1339 14.5532 42.7476 3.20549 28.6808 3.20549C14.616 3.20549 3.22964 14.5532 3.22964 28.5583C3.22964 42.574 14.616 53.9198 28.6808 53.9198C42.7466 53.9208 54.1339 42.574 54.1339 28.5583Z" transform="translate(17.9951 17)" fill="white"/>
<path d="M12.6997 6.33017C12.6997 2.83548 9.85212 0 6.34398 0C2.82801 0 0 2.83548 0 6.33017C0 9.83362 2.82899 12.671 6.34398 12.671C9.85212 12.671 12.6997 9.83362 12.6997 6.33017Z" transform="translate(40.3438 35.0391)" fill="#32C7BE"/>
<path d="M26.6903 14.0771C27.5757 8.2484 24.5219 2.52097 19.161 0C15.8073 2.66508 11.0346 2.66508 7.67305 0C2.3307 2.52097 -0.73478 8.2484 0.15154 14.0771C8.02581 19.9214 18.8082 19.9214 26.6903 14.0771Z" transform="translate(33.1016 47.0615)" fill="#32C7BE"/>
</svg>
