<svg width="93" height="94" viewBox="0 0 93 94" fill="none" xmlns="http://www.w3.org/2000/svg">
<ellipse cx="46.5" cy="47" rx="46.5" ry="47" fill="#941F56"/>
<path d="M15.9989 2.53044C14.5496 1.44829 12.7559 0.862465 10.9622 0.895011C10.3136 0.333595 9.41678 0 8.54397 0C7.90337 0 7.30281 0.179002 6.79033 0.520734L6.62218 0.634645L7.34285 1.81443C6.09368 2.45721 5.02068 3.42545 4.23595 4.62151C3.85159 4.51574 3.4272 4.46692 2.93874 4.46692C2.06593 4.46692 1.19311 4.63778 0.496463 4.7761L0 4.87374L0.368344 5.15038C1.75364 6.19185 2.04191 6.41154 2.11397 8.53515L2.12198 8.87688L2.41826 8.70602C3.40317 8.12833 4.09182 7.46928 4.68437 6.53358C6.05365 7.29027 7.6151 7.64014 9.17656 7.52623L9.12852 8.31547L9.3207 8.33174C9.38476 8.33988 9.44881 8.33988 9.51287 8.33988C10.5058 8.33988 11.2825 7.62387 11.6909 6.93227C13.6047 6.15117 15.1501 4.6866 16.047 2.79081L16.119 2.63622L15.9989 2.53044ZM13.0922 3.19763C13.0922 3.41732 12.916 3.59632 12.6998 3.59632C12.4836 3.59632 12.3075 3.41732 12.3075 3.19763C12.3075 2.97795 12.4836 2.79894 12.6998 2.79894C12.916 2.79894 13.0922 2.97795 13.0922 3.19763Z" transform="translate(30.7578 22.8281)" fill="#32C7BE"/>
<path d="M1.95386 0.244094L1.86578 0L1.64957 0.146458C1.58551 0.195277 -0.00797742 1.28556 3.00772e-05 2.40026C0.00803757 2.83149 0.232248 3.19764 0.688675 3.49055L0.712698 3.50682L0.744727 3.51496C0.9289 3.56378 1.09706 3.58818 1.2492 3.58818C1.60954 3.58818 1.89781 3.44986 2.08198 3.18136C2.33822 2.80708 2.39427 2.19685 2.24213 1.35879C2.13803 0.756693 1.96187 0.260367 1.95386 0.244094Z" transform="translate(23.3896 38.9053)" fill="#43D0E3"/>
<path d="M0.133349 1.17166C-0.0668371 1.54593 -0.0428147 1.9853 0.213424 2.45722L0.229439 2.48977L0.253461 2.51418C0.57376 2.82336 0.88605 2.97795 1.19033 2.97795C1.72683 2.97795 2.17525 2.50604 2.52758 1.57034C2.7678 0.919424 2.8719 0.284777 2.87991 0.260367L2.91994 0L2.66371 0.0244097C2.57562 0.0325462 0.661842 0.203413 0.133349 1.17166Z" transform="translate(28.4854 33.9434)" fill="#43D0E3"/>
<path d="M1.61351 0C1.01295 0 0.572534 0.154593 0.30028 0.455643C0.0600559 0.724146 -0.0360336 1.09029 0.0120112 1.55407V1.58661L0.0280265 1.61916C0.276258 2.19685 0.620579 2.48162 1.06099 2.48162C2.09395 2.48162 3.18297 0.764828 3.30308 0.569553L3.43921 0.349868L3.19098 0.268504C3.15895 0.260367 2.39023 0 1.61351 0Z" transform="translate(22.8096 32.2246)" fill="#43D0E3"/>
<path d="M36.7627 12.4849C36.7627 12.0374 36.4904 11.4678 36.3543 11.0447C36.1061 10.288 35.8098 9.54761 35.4655 8.82347C34.8008 7.44027 33.9761 6.13029 33.0072 4.94237C32.1504 3.89276 31.1815 2.90011 30.1085 2.07833C29.2276 1.403 28.0586 1.09382 27.0016 0.841588C24.4392 0.231352 21.7407 0.0116665 19.1062 0.0116665C16.3516 -0.0534253 13.533 0.149988 10.8345 0.719541C9.72945 0.955498 8.57638 1.24027 7.59146 1.80983C6.43037 2.48515 5.41343 3.61613 4.54061 4.63318C3.54769 5.80484 2.69088 7.0904 2.00224 8.4736C1.67394 9.13265 1.37766 9.81612 1.12943 10.5077C0.921234 11.0854 0.560898 11.8502 0.536876 12.4686C-0.800372 17.9689 0.392742 23.9085 3.75588 28.4242C6.79872 32.5087 11.427 35.2345 16.4397 35.8366C21.5485 36.4468 26.7613 34.8602 30.685 31.4835C36.05 26.8864 38.4442 19.4334 36.7627 12.4849ZM7.81567 2.89198C8.65645 2.2492 9.82554 1.98883 10.8265 1.76915C12.2918 1.44369 13.7812 1.26468 15.2706 1.15891C18.4496 0.931088 21.6846 0.988043 24.8315 1.46809C26.1528 1.66337 27.514 1.92374 28.7392 2.46888C29.2677 2.70484 30.2206 3.16048 29.5239 3.7219C28.6511 4.42977 27.3779 4.682 26.3129 4.90982C24.7755 5.23528 23.214 5.41429 21.6446 5.51192C18.4416 5.71533 15.1665 5.64211 11.9956 5.1051C10.7384 4.89355 9.40915 4.63318 8.27209 4.03922C7.77563 3.77072 7.15905 3.39644 7.81567 2.89198C8.50431 2.36311 7.60747 3.05471 7.81567 2.89198ZM4.11622 6.86258C4.8449 5.78856 5.69369 4.78778 6.63857 3.9009C6.97488 4.54368 7.70356 4.90982 8.32814 5.17019C9.32107 5.58515 10.3861 5.82924 11.4431 6.02452C13.8213 6.46389 16.2475 6.61035 18.6578 6.61035C21.068 6.61035 23.5023 6.46389 25.8725 6.02452C26.9215 5.82924 27.9865 5.58515 28.9714 5.17019C29.596 4.90982 30.3247 4.54368 30.669 3.90904C32.5988 5.73974 34.1442 8.01796 35.0971 10.5159C34.9129 10.0439 34.1042 9.83239 33.6558 9.65339C32.9831 9.38488 32.2945 9.1652 31.5898 8.97806C30.3327 8.63633 29.0515 8.39223 27.7623 8.18882C24.8155 7.74132 21.8367 7.55418 18.858 7.54604C15.8632 7.5379 12.8524 7.70064 9.8896 8.13187C7.33522 8.50615 4.54061 8.97806 2.2745 10.2962C2.76295 9.09197 3.37953 7.93659 4.11622 6.86258ZM1.64991 12.1431C1.66593 12.0943 1.54582 12.5337 1.56183 12.4849C1.58585 12.371 1.61788 12.2571 1.64991 12.1431ZM36.058 14.0227C36.082 14.1447 36.0981 14.2749 36.1141 14.397C36.0981 14.2749 36.074 14.1529 36.058 14.0227C35.0651 15.0072 33.6077 15.5116 32.3105 15.9103C30.8852 16.3416 29.4278 16.6426 27.9625 16.8704C24.5913 17.3993 21.1721 17.5783 17.769 17.5376C14.4699 17.4969 11.1548 17.2529 7.90375 16.6182C6.43037 16.3334 4.94899 15.9673 3.55569 15.4059C2.90709 15.1455 2.2745 14.8363 1.70597 14.4214C1.46574 14.2424 1.21751 14.1447 1.27356 13.8274C1.34563 13.4124 1.43371 13.0056 1.53781 12.5988C1.59386 13.2009 2.29852 13.6403 2.75495 13.9088C3.94005 14.6004 5.30933 14.9909 6.63056 15.3082C9.76949 16.0731 13.0205 16.3741 16.2395 16.488C19.7628 16.6101 23.3021 16.488 26.8014 16.0161C28.2828 15.8208 29.7561 15.5523 31.2055 15.1699C32.4466 14.8445 33.7439 14.4539 34.8329 13.7298C35.2092 13.4775 35.7297 13.0951 35.7778 12.5907C35.8658 13.0788 35.9779 13.5508 36.058 14.0227C36.1141 13.9657 36.1701 13.9088 36.2182 13.8518C36.1621 13.9169 36.1141 13.9739 36.058 14.0227C36.074 14.1529 36.1141 13.9739 36.058 14.0227Z" transform="translate(43.5771 33.8564)" fill="white"/>
<path d="M24.9814 8.49926C24.9814 8.0843 24.7092 7.53101 24.573 7.1486C24.3248 6.457 24.0125 5.78167 23.6442 5.13889C22.9395 3.90215 22.0347 2.78745 20.9697 1.85175C19.0959 0.20005 16.1972 0.10241 13.827 0.0291818C11.2406 -0.052183 8.40596 -0.0196371 5.93966 0.883512C4.86666 1.27406 4.03388 2.08771 3.27317 2.94204C2.32829 3.99978 1.55957 5.21212 1.00705 6.52209C-1.05887 11.404 0.126232 17.2134 3.89775 20.883C7.41303 24.284 12.6739 25.3743 17.2062 23.6006C23.0997 21.3061 26.4948 14.7318 24.9814 8.49926ZM5.44319 2.11212C6.40409 1.3717 7.94152 1.23338 9.0946 1.08692C10.56 0.899785 12.0494 0.834693 13.5227 0.883512C15.4766 0.924194 17.7827 1.0137 19.5604 1.8843C19.6885 1.94939 20.249 2.20976 20.1049 2.38876C19.9207 2.64099 19.5524 2.77118 19.2801 2.88509C17.9669 3.40582 16.4935 3.56855 15.0922 3.67433C13.4347 3.80451 11.7611 3.79637 10.1035 3.65805C8.73426 3.54414 7.2689 3.38141 5.99571 2.83627C5.71545 2.72236 4.99478 2.46199 5.44319 2.11212C5.8756 1.78666 5.29906 2.23417 5.44319 2.11212ZM2.99291 4.69952C3.45734 4.03233 3.97783 3.41396 4.56237 2.85254C4.56237 3.16173 5.39515 3.52787 5.60334 3.62551C6.25195 3.91028 6.95661 4.08115 7.65326 4.21947C9.24674 4.52865 10.8803 4.64257 12.4978 4.6507C14.1473 4.65884 15.8049 4.56934 17.4304 4.28456C18.4874 4.09742 20.1369 3.87774 20.8175 2.90136C21.9626 4.00792 22.8915 5.35044 23.5161 6.83128C22.0107 6.05831 20.265 5.74099 18.6075 5.4969C16.6376 5.21212 14.6518 5.09821 12.6659 5.09821C10.6801 5.09821 8.68622 5.21212 6.72439 5.4969C5.07485 5.74099 3.32121 6.05018 1.81581 6.83128C2.14411 6.07459 2.53648 5.36671 2.99291 4.69952ZM1.29532 8.31212C1.26329 8.42603 1.30333 8.28771 1.29532 8.31212V8.31212ZM21.1779 11.1192C17.4064 12.0793 13.3466 12.1769 9.47896 11.9084C7.62923 11.7783 5.76349 11.5423 3.96982 11.0704C3.14505 10.8507 2.30426 10.5822 1.55957 10.151C1.44746 10.0859 1.10314 9.75227 0.991039 9.75227C1.0551 9.36986 1.12717 8.98745 1.22326 8.60503C1.27931 9.06067 1.91991 9.36986 2.26423 9.54886C3.20911 10.0208 4.25008 10.2811 5.27504 10.4927C7.7013 10.9972 10.1996 11.1599 12.6739 11.1599C15.1483 11.1599 17.6466 10.9972 20.0728 10.4927C21.0978 10.2811 22.1388 10.0208 23.0837 9.54886C23.428 9.378 24.0686 9.06881 24.1246 8.60503C24.2287 8.97931 24.3008 9.36986 24.3568 9.75227C24.1166 9.96382 23.8364 10.1347 23.5561 10.2811C22.8034 10.6636 21.9866 10.9077 21.1779 11.1192C18.9038 11.6969 22.6753 10.7368 21.1779 11.1192Z" transform="translate(13.4785 45.3867)" fill="white"/>
</svg>
