<svg width="93" height="94" viewBox="0 0 93 94" fill="none" xmlns="http://www.w3.org/2000/svg">
<ellipse cx="46.5" cy="47" rx="46.5" ry="47" fill="#941F56"/>
<mask id="path-2-inside-1" fill="white">
<path d="M56.8631 0.0810414C56.6159 -0.0457787 56.3186 -0.021907 56.0936 0.143705C56.0678 0.163101 53.4134 2.09823 48.5399 3.57009C47.1787 3.98114 45.5262 4.26163 43.777 4.55929C39.349 5.31125 34.3648 6.16021 31.0103 9.47469C31.003 9.47469 30.997 9.47021 30.9897 9.47021C30.9823 9.47021 30.9764 9.47394 30.969 9.47469C27.6145 6.15946 22.6303 5.31125 18.2031 4.55929C16.4539 4.26163 14.8014 3.98114 13.4402 3.57009C8.56668 2.09748 5.91228 0.163101 5.88646 0.143705C5.66292 -0.021907 5.36487 -0.0465247 5.11699 0.0810414C4.86911 0.208608 4.71271 0.465234 4.71271 0.74573V33.71C4.71271 34.0047 4.88387 34.271 5.15019 34.3911C7.58179 35.4885 11.0433 35.4504 14.7018 35.4072C20.1721 35.3475 26.3699 35.2744 30.5042 38.9313C30.6429 39.0544 30.817 39.1155 30.9897 39.1155C31.1689 39.1155 31.349 39.0491 31.4906 38.9171C35.048 35.5967 40.4837 35.769 45.7409 35.9383C50.0308 36.0741 54.0818 36.2046 56.9199 34.4142C57.1361 34.2777 57.2674 34.0383 57.2674 33.7809V0.74573C57.2674 0.465234 57.111 0.207862 56.8631 0.0810414ZM14.6855 33.9152C11.4166 33.9525 8.32249 33.9875 6.18746 33.2065V2.09972C7.46302 2.84647 9.75961 4.0162 13.0175 5.00017C14.4664 5.43808 16.1625 5.72603 17.9582 6.03115C22.316 6.77192 27.2382 7.61565 30.2512 10.8779V36.8522C26.4216 34.2173 21.5392 33.898 16.9143 33.898C16.1625 33.898 15.4174 33.907 14.6855 33.9152ZM55.7919 33.3512C53.3271 34.6865 49.659 34.5679 45.7873 34.4471C41.0149 34.2926 35.6662 34.124 31.7267 36.829V10.8779C34.7404 7.61565 39.6633 6.77192 44.0204 6.03115C45.8168 5.72603 47.5122 5.43808 48.9611 5.00017C52.219 4.0162 54.5156 2.84647 55.7911 2.09972L55.7919 33.3512ZM31.0052 41.3349C30.5979 41.3349 30.1907 41.226 29.8277 41.0081C24.2902 37.6862 19.0869 37.9466 13.576 38.2233C10.1373 38.3956 6.58215 38.5739 2.93548 37.816C2.59243 37.7444 2.34603 37.4393 2.34603 37.0857V6.7764C2.34603 6.36461 2.6758 6.0304 3.08377 6.0304C3.49174 6.0304 3.82151 6.36461 3.82151 6.7764V36.4687C7.08898 37.0551 10.3476 36.891 13.5029 36.7328C18.9895 36.4568 24.6613 36.1741 30.5802 39.725C30.8451 39.8854 31.163 39.8862 31.4279 39.725C37.3483 36.1726 43.0164 36.4575 48.4956 36.7328C51.6495 36.891 54.9051 37.0551 58.1718 36.4687V6.7764C58.1718 6.36461 58.5016 6.0304 58.9096 6.0304C59.3176 6.0304 59.6473 6.36461 59.6473 6.7764V37.0857C59.6473 37.44 59.4009 37.7451 59.0579 37.816C55.4097 38.5739 51.856 38.3956 48.4218 38.2233C42.9175 37.9466 37.7179 37.6855 32.1811 41.0081C31.8196 41.2267 31.4124 41.3349 31.0052 41.3349ZM30.9897 44.345C28.73 44.345 27.3076 43.458 27.25 42.022C21.7952 40.0674 13.6018 40.8582 6.34534 41.5579C4.40507 41.7452 2.57325 41.922 0.790862 42.0525C0.58208 42.066 0.38584 41.9966 0.23534 41.8548C0.0848404 41.7131 0 41.5154 0 41.3088V10.3192C0 9.90737 0.329772 9.57316 0.737744 9.57316C1.14572 9.57316 1.47549 9.90737 1.47549 10.3192V40.5038C2.9945 40.383 4.56147 40.2316 6.20516 40.0734C14.2399 39.2976 22.5462 38.4956 28.322 40.8373C28.6879 40.985 28.8738 41.399 28.744 41.7758C28.7292 41.8168 28.7233 41.8653 28.7233 41.9302C28.7233 42.565 29.8985 42.853 30.9897 42.853C32.1258 42.853 33.2759 42.536 33.2759 41.9302C33.2759 41.8705 33.2656 41.8071 33.2435 41.731C33.1365 41.3625 33.3246 40.9708 33.678 40.8284C39.4597 38.4941 47.7623 39.2946 55.7948 40.0719C57.4393 40.2308 59.0062 40.3822 60.5245 40.5031V10.3192C60.5245 9.90737 60.8543 9.57316 61.2623 9.57316C61.6702 9.57316 62 9.90737 62 10.3192V41.3095C62 41.5162 61.9152 41.7146 61.7647 41.8556C61.6142 41.9966 61.415 42.0667 61.2091 42.0533C59.4275 41.9227 57.5949 41.7459 55.6547 41.5587C48.4012 40.8567 40.21 40.0659 34.7507 42.0152C34.6954 43.455 33.2656 44.345 30.9897 44.345ZM25.6469 30.7447C25.5695 30.7447 25.4898 30.732 25.4123 30.7059C22.333 29.6607 18.8641 29.522 15.5096 29.3877C14.5756 29.3504 13.663 29.3138 12.7866 29.2579C11.8098 29.1945 10.9548 29.1176 10.1705 29.0236C9.76552 28.9751 9.47706 28.6036 9.52501 28.1948C9.57296 27.7853 9.9411 27.4899 10.3446 27.5421C11.1016 27.6331 11.9308 27.7077 12.8803 27.7696C13.7449 27.8248 14.6464 27.8606 15.5679 27.8972C18.8656 28.0292 22.6023 28.1784 25.8823 29.2915C26.2681 29.4228 26.4769 29.8457 26.347 30.2366C26.2423 30.5477 25.9553 30.7447 25.6469 30.7447ZM25.6469 25.0751C25.5658 25.0751 25.4832 25.0616 25.402 25.0325C22.5624 24.0225 19.385 23.7703 16.3108 23.5256C15.0352 23.4242 13.832 23.3279 12.687 23.181C11.6984 23.0497 10.8574 22.9131 10.113 22.7617C9.71387 22.6811 9.45419 22.288 9.5346 21.8837C9.61354 21.4793 10.006 21.216 10.4029 21.2988C11.1149 21.442 11.9242 21.5741 12.8773 21.7009C13.9839 21.8434 15.1702 21.9374 16.4281 22.0373C19.4484 22.2776 22.8723 22.5498 25.8933 23.6241C26.2777 23.7613 26.4798 24.1866 26.3441 24.5752C26.2364 24.8841 25.9509 25.0751 25.6469 25.0751ZM25.6469 19.398C25.5614 19.398 25.475 19.3831 25.3902 19.351C22.6989 18.3409 19.6904 18.0015 16.7822 17.674C15.2897 17.5054 13.8792 17.3472 12.5859 17.1025C11.7257 16.9362 10.8817 16.7474 10.0754 16.5393C9.68068 16.4379 9.44238 16.0313 9.54272 15.6322C9.64379 15.2323 10.0451 14.9906 10.4398 15.0936C11.2174 15.2942 12.0311 15.4763 12.8596 15.6359C14.0975 15.8694 15.4808 16.0253 16.946 16.1902C19.8033 16.5125 23.0427 16.8773 25.9037 17.9515C26.2866 18.0947 26.4806 18.5244 26.3389 18.9101C26.2283 19.2122 25.9465 19.398 25.6469 19.398ZM25.6469 13.7135C25.5569 13.7135 25.4662 13.6971 25.3777 13.662C22.7801 12.6318 19.8807 12.2192 17.0766 11.8216C15.4292 11.5874 13.8725 11.3665 12.4959 11.0294C11.6128 10.81 10.7843 10.5735 10.0304 10.3281C9.64305 10.2013 9.43058 9.78129 9.55526 9.3889C9.67994 8.9965 10.0931 8.7824 10.4841 8.90772C11.2041 9.14271 11.9987 9.36875 12.8449 9.57913C14.1499 9.89841 15.6704 10.114 17.2817 10.343C20.0349 10.7339 23.1563 11.1778 25.9162 12.2722C26.2954 12.4221 26.4828 12.8548 26.333 13.239C26.2194 13.5344 25.9413 13.7135 25.6469 13.7135ZM35.5578 30.7447C35.2494 30.7447 34.9617 30.5477 34.8584 30.2359C34.7286 29.8457 34.9366 29.422 35.3232 29.2907C38.6025 28.1777 42.3399 28.0285 45.6368 27.8964C46.559 27.8599 47.4605 27.8241 48.3266 27.7689C49.2739 27.7069 50.1031 27.6323 50.8608 27.5413C51.2695 27.4884 51.6325 27.7845 51.6804 28.1941C51.7284 28.6029 51.4399 28.9744 51.0349 29.0229C50.2507 29.1169 49.3956 29.1937 48.4203 29.2571C47.5424 29.3131 46.6291 29.3496 45.6959 29.3869C42.3413 29.5212 38.8725 29.6592 35.7931 30.7051C35.7149 30.732 35.636 30.7447 35.5578 30.7447ZM35.5578 25.0751C35.2538 25.0751 34.9683 24.8833 34.8621 24.5767C34.7263 24.1881 34.9292 23.7621 35.3129 23.6256C38.3339 22.5513 41.7578 22.279 44.7781 22.0388C46.0352 21.9389 47.2223 21.8449 48.3303 21.7016C49.2813 21.5756 50.0906 21.4435 50.8025 21.3003C51.209 21.216 51.5904 21.4816 51.6708 21.8852C51.7505 22.2895 51.4916 22.6819 51.0925 22.7632C50.3481 22.9139 49.507 23.0512 48.5207 23.1817C47.3735 23.3294 46.1695 23.4257 44.8947 23.5271C41.8205 23.7711 38.6423 24.0239 35.8035 25.034C35.7216 25.0624 35.6397 25.0751 35.5578 25.0751ZM35.5578 19.398C35.2583 19.398 34.9764 19.2122 34.8658 18.9123C34.7241 18.5252 34.9182 18.0962 35.3003 17.953C38.162 16.8787 41.4014 16.5132 44.2587 16.1917C45.7239 16.0268 47.1072 15.8709 48.348 15.6367C49.1706 15.4785 49.9851 15.2957 50.7649 15.0951C51.1581 14.9921 51.5609 15.2338 51.662 15.6337C51.7631 16.0328 51.524 16.4394 51.1293 16.5408C50.3193 16.7489 49.4761 16.9384 48.6217 17.1033C47.3248 17.348 45.915 17.5069 44.4225 17.6755C41.5143 18.003 38.5058 18.3424 35.8153 19.3525C35.7304 19.3831 35.6434 19.398 35.5578 19.398ZM35.5578 13.7135C35.2634 13.7135 34.9853 13.5344 34.8709 13.2398C34.7219 12.8563 34.9093 12.4229 35.2878 12.2729C38.0469 11.1778 41.1683 10.7347 43.9216 10.3438C45.5328 10.1148 47.054 9.89916 48.3606 9.57913C49.2053 9.3695 49.9999 9.14346 50.7199 8.90847C51.1109 8.78314 51.5233 8.99724 51.6487 9.38964C51.7741 9.78204 51.5617 10.202 51.1736 10.3289C50.4196 10.575 49.5904 10.8108 48.7095 11.0294C47.3307 11.3665 45.7741 11.5874 44.1267 11.8224C41.3232 12.22 38.4247 12.6325 35.8263 13.6627C35.7385 13.6963 35.6478 13.7135 35.5578 13.7135Z"/>
</mask>
<path d="M56.8631 0.0810414C56.6159 -0.0457787 56.3186 -0.021907 56.0936 0.143705C56.0678 0.163101 53.4134 2.09823 48.5399 3.57009C47.1787 3.98114 45.5262 4.26163 43.777 4.55929C39.349 5.31125 34.3648 6.16021 31.0103 9.47469C31.003 9.47469 30.997 9.47021 30.9897 9.47021C30.9823 9.47021 30.9764 9.47394 30.969 9.47469C27.6145 6.15946 22.6303 5.31125 18.2031 4.55929C16.4539 4.26163 14.8014 3.98114 13.4402 3.57009C8.56668 2.09748 5.91228 0.163101 5.88646 0.143705C5.66292 -0.021907 5.36487 -0.0465247 5.11699 0.0810414C4.86911 0.208608 4.71271 0.465234 4.71271 0.74573V33.71C4.71271 34.0047 4.88387 34.271 5.15019 34.3911C7.58179 35.4885 11.0433 35.4504 14.7018 35.4072C20.1721 35.3475 26.3699 35.2744 30.5042 38.9313C30.6429 39.0544 30.817 39.1155 30.9897 39.1155C31.1689 39.1155 31.349 39.0491 31.4906 38.9171C35.048 35.5967 40.4837 35.769 45.7409 35.9383C50.0308 36.0741 54.0818 36.2046 56.9199 34.4142C57.1361 34.2777 57.2674 34.0383 57.2674 33.7809V0.74573C57.2674 0.465234 57.111 0.207862 56.8631 0.0810414ZM14.6855 33.9152C11.4166 33.9525 8.32249 33.9875 6.18746 33.2065V2.09972C7.46302 2.84647 9.75961 4.0162 13.0175 5.00017C14.4664 5.43808 16.1625 5.72603 17.9582 6.03115C22.316 6.77192 27.2382 7.61565 30.2512 10.8779V36.8522C26.4216 34.2173 21.5392 33.898 16.9143 33.898C16.1625 33.898 15.4174 33.907 14.6855 33.9152ZM55.7919 33.3512C53.3271 34.6865 49.659 34.5679 45.7873 34.4471C41.0149 34.2926 35.6662 34.124 31.7267 36.829V10.8779C34.7404 7.61565 39.6633 6.77192 44.0204 6.03115C45.8168 5.72603 47.5122 5.43808 48.9611 5.00017C52.219 4.0162 54.5156 2.84647 55.7911 2.09972L55.7919 33.3512ZM31.0052 41.3349C30.5979 41.3349 30.1907 41.226 29.8277 41.0081C24.2902 37.6862 19.0869 37.9466 13.576 38.2233C10.1373 38.3956 6.58215 38.5739 2.93548 37.816C2.59243 37.7444 2.34603 37.4393 2.34603 37.0857V6.7764C2.34603 6.36461 2.6758 6.0304 3.08377 6.0304C3.49174 6.0304 3.82151 6.36461 3.82151 6.7764V36.4687C7.08898 37.0551 10.3476 36.891 13.5029 36.7328C18.9895 36.4568 24.6613 36.1741 30.5802 39.725C30.8451 39.8854 31.163 39.8862 31.4279 39.725C37.3483 36.1726 43.0164 36.4575 48.4956 36.7328C51.6495 36.891 54.9051 37.0551 58.1718 36.4687V6.7764C58.1718 6.36461 58.5016 6.0304 58.9096 6.0304C59.3176 6.0304 59.6473 6.36461 59.6473 6.7764V37.0857C59.6473 37.44 59.4009 37.7451 59.0579 37.816C55.4097 38.5739 51.856 38.3956 48.4218 38.2233C42.9175 37.9466 37.7179 37.6855 32.1811 41.0081C31.8196 41.2267 31.4124 41.3349 31.0052 41.3349ZM30.9897 44.345C28.73 44.345 27.3076 43.458 27.25 42.022C21.7952 40.0674 13.6018 40.8582 6.34534 41.5579C4.40507 41.7452 2.57325 41.922 0.790862 42.0525C0.58208 42.066 0.38584 41.9966 0.23534 41.8548C0.0848404 41.7131 0 41.5154 0 41.3088V10.3192C0 9.90737 0.329772 9.57316 0.737744 9.57316C1.14572 9.57316 1.47549 9.90737 1.47549 10.3192V40.5038C2.9945 40.383 4.56147 40.2316 6.20516 40.0734C14.2399 39.2976 22.5462 38.4956 28.322 40.8373C28.6879 40.985 28.8738 41.399 28.744 41.7758C28.7292 41.8168 28.7233 41.8653 28.7233 41.9302C28.7233 42.565 29.8985 42.853 30.9897 42.853C32.1258 42.853 33.2759 42.536 33.2759 41.9302C33.2759 41.8705 33.2656 41.8071 33.2435 41.731C33.1365 41.3625 33.3246 40.9708 33.678 40.8284C39.4597 38.4941 47.7623 39.2946 55.7948 40.0719C57.4393 40.2308 59.0062 40.3822 60.5245 40.5031V10.3192C60.5245 9.90737 60.8543 9.57316 61.2623 9.57316C61.6702 9.57316 62 9.90737 62 10.3192V41.3095C62 41.5162 61.9152 41.7146 61.7647 41.8556C61.6142 41.9966 61.415 42.0667 61.2091 42.0533C59.4275 41.9227 57.5949 41.7459 55.6547 41.5587C48.4012 40.8567 40.21 40.0659 34.7507 42.0152C34.6954 43.455 33.2656 44.345 30.9897 44.345ZM25.6469 30.7447C25.5695 30.7447 25.4898 30.732 25.4123 30.7059C22.333 29.6607 18.8641 29.522 15.5096 29.3877C14.5756 29.3504 13.663 29.3138 12.7866 29.2579C11.8098 29.1945 10.9548 29.1176 10.1705 29.0236C9.76552 28.9751 9.47706 28.6036 9.52501 28.1948C9.57296 27.7853 9.9411 27.4899 10.3446 27.5421C11.1016 27.6331 11.9308 27.7077 12.8803 27.7696C13.7449 27.8248 14.6464 27.8606 15.5679 27.8972C18.8656 28.0292 22.6023 28.1784 25.8823 29.2915C26.2681 29.4228 26.4769 29.8457 26.347 30.2366C26.2423 30.5477 25.9553 30.7447 25.6469 30.7447ZM25.6469 25.0751C25.5658 25.0751 25.4832 25.0616 25.402 25.0325C22.5624 24.0225 19.385 23.7703 16.3108 23.5256C15.0352 23.4242 13.832 23.3279 12.687 23.181C11.6984 23.0497 10.8574 22.9131 10.113 22.7617C9.71387 22.6811 9.45419 22.288 9.5346 21.8837C9.61354 21.4793 10.006 21.216 10.4029 21.2988C11.1149 21.442 11.9242 21.5741 12.8773 21.7009C13.9839 21.8434 15.1702 21.9374 16.4281 22.0373C19.4484 22.2776 22.8723 22.5498 25.8933 23.6241C26.2777 23.7613 26.4798 24.1866 26.3441 24.5752C26.2364 24.8841 25.9509 25.0751 25.6469 25.0751ZM25.6469 19.398C25.5614 19.398 25.475 19.3831 25.3902 19.351C22.6989 18.3409 19.6904 18.0015 16.7822 17.674C15.2897 17.5054 13.8792 17.3472 12.5859 17.1025C11.7257 16.9362 10.8817 16.7474 10.0754 16.5393C9.68068 16.4379 9.44238 16.0313 9.54272 15.6322C9.64379 15.2323 10.0451 14.9906 10.4398 15.0936C11.2174 15.2942 12.0311 15.4763 12.8596 15.6359C14.0975 15.8694 15.4808 16.0253 16.946 16.1902C19.8033 16.5125 23.0427 16.8773 25.9037 17.9515C26.2866 18.0947 26.4806 18.5244 26.3389 18.9101C26.2283 19.2122 25.9465 19.398 25.6469 19.398ZM25.6469 13.7135C25.5569 13.7135 25.4662 13.6971 25.3777 13.662C22.7801 12.6318 19.8807 12.2192 17.0766 11.8216C15.4292 11.5874 13.8725 11.3665 12.4959 11.0294C11.6128 10.81 10.7843 10.5735 10.0304 10.3281C9.64305 10.2013 9.43058 9.78129 9.55526 9.3889C9.67994 8.9965 10.0931 8.7824 10.4841 8.90772C11.2041 9.14271 11.9987 9.36875 12.8449 9.57913C14.1499 9.89841 15.6704 10.114 17.2817 10.343C20.0349 10.7339 23.1563 11.1778 25.9162 12.2722C26.2954 12.4221 26.4828 12.8548 26.333 13.239C26.2194 13.5344 25.9413 13.7135 25.6469 13.7135ZM35.5578 30.7447C35.2494 30.7447 34.9617 30.5477 34.8584 30.2359C34.7286 29.8457 34.9366 29.422 35.3232 29.2907C38.6025 28.1777 42.3399 28.0285 45.6368 27.8964C46.559 27.8599 47.4605 27.8241 48.3266 27.7689C49.2739 27.7069 50.1031 27.6323 50.8608 27.5413C51.2695 27.4884 51.6325 27.7845 51.6804 28.1941C51.7284 28.6029 51.4399 28.9744 51.0349 29.0229C50.2507 29.1169 49.3956 29.1937 48.4203 29.2571C47.5424 29.3131 46.6291 29.3496 45.6959 29.3869C42.3413 29.5212 38.8725 29.6592 35.7931 30.7051C35.7149 30.732 35.636 30.7447 35.5578 30.7447ZM35.5578 25.0751C35.2538 25.0751 34.9683 24.8833 34.8621 24.5767C34.7263 24.1881 34.9292 23.7621 35.3129 23.6256C38.3339 22.5513 41.7578 22.279 44.7781 22.0388C46.0352 21.9389 47.2223 21.8449 48.3303 21.7016C49.2813 21.5756 50.0906 21.4435 50.8025 21.3003C51.209 21.216 51.5904 21.4816 51.6708 21.8852C51.7505 22.2895 51.4916 22.6819 51.0925 22.7632C50.3481 22.9139 49.507 23.0512 48.5207 23.1817C47.3735 23.3294 46.1695 23.4257 44.8947 23.5271C41.8205 23.7711 38.6423 24.0239 35.8035 25.034C35.7216 25.0624 35.6397 25.0751 35.5578 25.0751ZM35.5578 19.398C35.2583 19.398 34.9764 19.2122 34.8658 18.9123C34.7241 18.5252 34.9182 18.0962 35.3003 17.953C38.162 16.8787 41.4014 16.5132 44.2587 16.1917C45.7239 16.0268 47.1072 15.8709 48.348 15.6367C49.1706 15.4785 49.9851 15.2957 50.7649 15.0951C51.1581 14.9921 51.5609 15.2338 51.662 15.6337C51.7631 16.0328 51.524 16.4394 51.1293 16.5408C50.3193 16.7489 49.4761 16.9384 48.6217 17.1033C47.3248 17.348 45.915 17.5069 44.4225 17.6755C41.5143 18.003 38.5058 18.3424 35.8153 19.3525C35.7304 19.3831 35.6434 19.398 35.5578 19.398ZM35.5578 13.7135C35.2634 13.7135 34.9853 13.5344 34.8709 13.2398C34.7219 12.8563 34.9093 12.4229 35.2878 12.2729C38.0469 11.1778 41.1683 10.7347 43.9216 10.3438C45.5328 10.1148 47.054 9.89916 48.3606 9.57913C49.2053 9.3695 49.9999 9.14346 50.7199 8.90847C51.1109 8.78314 51.5233 8.99724 51.6487 9.38964C51.7741 9.78204 51.5617 10.202 51.1736 10.3289C50.4196 10.575 49.5904 10.8108 48.7095 11.0294C47.3307 11.3665 45.7741 11.5874 44.1267 11.8224C41.3232 12.22 38.4247 12.6325 35.8263 13.6627C35.7385 13.6963 35.6478 13.7135 35.5578 13.7135Z" transform="translate(16.1738 24.1719)" fill="white" stroke="white" stroke-width="1.5" mask="url(#path-2-inside-1)"/>
</svg>
